<?xml version="1.0" standalone="no"?>
<!DOCTYPE svg PUBLIC "-//W3C//DTD SVG 20010904//EN"
 "http://www.w3.org/TR/2001/REC-SVG-20010904/DTD/svg10.dtd">
<svg version="1.0" xmlns="http://www.w3.org/2000/svg"
 width="100.000000pt" height="100.000000pt" viewBox="0 0 100.000000 100.000000"
 preserveAspectRatio="xMidYMid meet">

<g transform="translate(0.000000,100.000000) scale(0.100000,-0.100000)"
fill="#736CED" stroke="none">
<path d="M795 966 c-16 -7 -55 -39 -85 -70 l-55 -56 93 -92 92 -93 60 60 c74
73 91 117 69 178 -8 22 -26 49 -40 59 -34 25 -96 32 -134 14z"/>
<path d="M540 794 c-63 -57 -58 -72 63 -192 120 -119 135 -124 191 -62 20 22
36 46 36 53 0 16 -222 237 -238 237 -7 0 -30 -16 -52 -36z"/>
<path d="M308 453 c-162 -164 -198 -205 -207 -239 -6 -22 -22 -51 -36 -64 -33
-31 -32 -40 10 -80 l35 -34 27 22 c29 23 46 32 98 51 18 7 115 96 223 204
l192 192 -73 73 -73 72 -196 -197z"/>
</g>
</svg>
